<?xml version="1.0" encoding="UTF-8"?>
<svg version="1.0" viewBox="0 0 242.36 151.02" xmlns="http://www.w3.org/2000/svg" xmlns:cc="http://creativecommons.org/ns#" xmlns:dc="http://purl.org/dc/elements/1.1/" xmlns:rdf="http://www.w3.org/1999/02/22-rdf-syntax-ns#">
<g transform="translate(-260.34 -473.69)">
<path transform="translate(260.34 473.69)" d="m60.281 24.156c-1.536 0-2.75 1.246-2.75 2.782v73.152c0 1.54 1.214 2.75 2.75 2.75h121.78c1.54 0 2.78-1.21 2.78-2.75v-73.152c0-1.536-1.24-2.782-2.78-2.782h-52.81c-0.27 0.449-0.77 0.75-1.34 0.75h-14.31c-0.57 0-1.04-0.303-1.31-0.75h-52.009z" fill="#3f3f3f" fill-rule="evenodd" stroke="#000" stroke-linecap="round" stroke-linejoin="round"/>
<rect x="324.17" y="504.14" width="114.69" height="68.484" rx="2.7723" ry="2.6797" fill="#262626" fill-rule="evenodd"/>
<path d="m272.94 520.34c-5.49 30.06-9.07 62.22-11.76 76.34-4.23 22.13 32.77 40.74 46.79 15.16 10.65-19.42 22.75-44.18 22.75-44.18l-57.78-47.32z" fill="#262626" fill-rule="evenodd" stroke="#000"/>
<path d="m435.52 483.74h33.15l-2.6-4.27c-1.7-2.8-6.13-4.88-13.98-4.88-7.84 0-12.27 2.08-13.98 4.88l-2.59 4.27z" fill="#7a7a7a" fill-rule="evenodd" stroke="#000"/>
<path d="m293.16 483.74h33.15l-2.59-4.27c-1.71-2.8-6.14-4.88-13.98-4.88-7.85 0-12.28 2.08-13.98 4.88l-2.6 4.27z" fill="#7a7a7a" fill-rule="evenodd" stroke="#000"/>
<path d="m330.59 503.61c-1.7-10.98-2.49-16.47-3.27-20.53-0.78-4.05-7.71-6.14-17.58-6.14s-16.8 2.09-17.58 6.14c-0.79 4.06-1.57 9.55-3.27 20.53" fill="#262626" fill-rule="evenodd" stroke="#000"/>
<path transform="matrix(1.0069 0 0 1.0069 3.9034 -2.889)" d="m341.44 528.96a37.647 37.647 0 1 1-75.3 0 37.647 37.647 0 1 1 75.3 0z" fill="#333" fill-rule="evenodd" stroke="#000" stroke-linecap="round" stroke-linejoin="round" stroke-width=".9931"/>
<path d="m472.94 503.61c-1.7-10.98-2.48-16.47-3.27-20.53-0.78-4.05-7.71-6.14-17.58-6.14s-16.8 2.09-17.58 6.14c-0.78 4.06-1.57 9.55-3.27 20.53" fill="#262626" fill-rule="evenodd" stroke="#000"/>
<path transform="matrix(.63889 0 0 .63889 152.06 228.66)" d="m341.44 528.96a37.647 37.647 0 1 1-75.3 0 37.647 37.647 0 1 1 75.3 0z" fill="#333" fill-rule="evenodd" stroke="#000" stroke-linecap="round" stroke-linejoin="round" stroke-width="1.5652"/>
<path transform="matrix(.49306 0 0 .49306 196.36 305.8)" d="m341.44 528.96a37.647 37.647 0 1 1-75.3 0 37.647 37.647 0 1 1 75.3 0z" fill-opacity=".51852" fill-rule="evenodd" stroke="#000" stroke-linecap="round" stroke-linejoin="round" stroke-width="2.0282"/>
<path transform="matrix(.43056 0 0 .43056 215.34 338.86)" d="m341.44 528.96a37.647 37.647 0 1 1-75.3 0 37.647 37.647 0 1 1 75.3 0z" fill="#4d4d4d" fill-opacity=".51852" fill-rule="evenodd" stroke="#000" stroke-linecap="round" stroke-linejoin="round" stroke-width="2.3226"/>
<path d="m490.08 520.34c5.49 30.06 9.07 62.75 11.76 76.34 4.38 22.1-32.77 40.74-46.8 15.16-10.64-19.42-22.74-44.18-22.74-44.18l57.78-47.32z" fill="#262626" fill-rule="evenodd" stroke="#000"/>
<path transform="matrix(-1.0069 0 0 1.0069 759.11 -2.889)" d="m341.44 528.96a37.647 37.647 0 1 1-75.3 0 37.647 37.647 0 1 1 75.3 0z" fill="#333" fill-rule="evenodd" stroke="#000" stroke-linecap="round" stroke-linejoin="round" stroke-width=".9931"/>
<path d="m445.43 501.73c-1.53 0-2.78 1.25-2.78 2.78v14.66h-14.69c-1.53 0-2.75 1.25-2.75 2.78v15.59c0 1.54 1.22 2.79 2.75 2.79h14.69v14.65c0 1.54 1.25 2.78 2.78 2.78h15.6c1.53 0 2.75-1.24 2.75-2.78v-14.65h14.68c1.54 0 2.75-1.25 2.75-2.79v-15.59c0-1.53-1.21-2.78-2.75-2.78h-14.68v-14.66c0-1.53-1.22-2.78-2.75-2.78h-15.6z" fill="#262626" fill-rule="evenodd"/>
<rect x="353.46" y="530.28" width="11.634" height="6.6667" rx="1.5686" ry="1.5686" fill="#595959" fill-rule="evenodd" stroke="#000" stroke-linecap="round" stroke-linejoin="round"/>
<path d="m407.19 533.61-8.5 3.33c-0.81 0.32-1.57-0.7-1.57-1.57v-3.53c0-0.86 0.76-1.88 1.57-1.56l8.5 3.33z" fill="#595959" fill-rule="evenodd" stroke="#000" stroke-linecap="round" stroke-linejoin="round"/>
<path transform="matrix(1.3796 0 0 1.3796 -133.81 -201.68)" d="m380 545.83a5.7516 5.7516 0 1 1-11.5 0 5.7516 5.7516 0 1 1 11.5 0z" fill="#595959" fill-rule="evenodd" stroke="#000" stroke-linecap="round" stroke-linejoin="round"/>
<path transform="translate(-.11915 1.4379)" d="m461.57 510.66a8.2353 8.2353 0 1 1-16.47 0 8.2353 8.2353 0 1 1 16.47 0z" fill="#5a5a5a" fill-rule="evenodd" stroke="#454545" stroke-linecap="round" stroke-linejoin="round"/>
<path transform="translate(-.11915 36.863)" d="m461.57 510.66a8.2353 8.2353 0 1 1-16.47 0 8.2353 8.2353 0 1 1 16.47 0z" fill="#5a5a5a" fill-rule="evenodd" stroke="#454545" stroke-linecap="round" stroke-linejoin="round"/>
<path transform="matrix(-1 0 0 -1 924.26 1040.5)" d="m461.57 510.66a8.2353 8.2353 0 1 1-16.47 0 8.2353 8.2353 0 1 1 16.47 0z" fill="#5a5a5a" fill-rule="evenodd" stroke="#454545" stroke-linecap="round" stroke-linejoin="round"/>
<path transform="matrix(-1 0 0 -1 888.84 1040.5)" d="m461.57 510.66a8.2353 8.2353 0 1 1-16.47 0 8.2353 8.2353 0 1 1 16.47 0z" fill="#5a5a5a" fill-rule="evenodd" stroke="#454545" stroke-linecap="round" stroke-linejoin="round"/>
<path d="m301.84 501.25c-1.53 0-2.78 1.25-2.78 2.78v14.66h-14.68c-1.54 0-2.76 1.24-2.76 2.78v15.59c0 1.54 1.22 2.78 2.76 2.78h14.68v14.66c0 1.54 1.25 2.78 2.78 2.78h15.6c1.53 0 2.75-1.24 2.75-2.78v-14.66h14.69c1.53 0 2.74-1.24 2.74-2.78v-15.59c0-1.54-1.21-2.78-2.74-2.78h-14.69v-14.66c0-1.53-1.22-2.78-2.75-2.78h-15.6z" fill="#262626" fill-rule="evenodd"/>
<path transform="matrix(.63889 0 0 .63889 222.12 228.66)" d="m341.44 528.96a37.647 37.647 0 1 1-75.3 0 37.647 37.647 0 1 1 75.3 0z" fill="#333" fill-rule="evenodd" stroke="#000" stroke-linecap="round" stroke-linejoin="round" stroke-width="1.5652"/>
<path transform="matrix(.49306 0 0 .49306 266.42 305.8)" d="m341.44 528.96a37.647 37.647 0 1 1-75.3 0 37.647 37.647 0 1 1 75.3 0z" fill-opacity=".51852" fill-rule="evenodd" stroke="#000" stroke-linecap="round" stroke-linejoin="round" stroke-width="2.0282"/>
<path transform="matrix(.43056 0 0 .43056 285.41 338.86)" d="m341.44 528.96a37.647 37.647 0 1 1-75.3 0 37.647 37.647 0 1 1 75.3 0z" fill="#4d4d4d" fill-opacity=".51852" fill-rule="evenodd" stroke="#000" stroke-linecap="round" stroke-linejoin="round" stroke-width="2.3226"/>
<g fill="#3f3f3f" fill-rule="evenodd">
<path transform="matrix(0 -.28374 -.51741 0 575.79 583.64)" d="m279.97 514.41-12.66 7.32v-14.63l12.66 7.31z"/>
<path transform="matrix(0 .28374 -.51741 0 575.79 474.89)" d="m279.97 514.41-12.66 7.32v-14.63l12.66 7.31z"/>
<path transform="matrix(.28374 0 0 -.51741 255.25 795.43)" d="m279.97 514.41-12.66 7.32v-14.63l12.66 7.31z"/>
<path transform="matrix(-.28374 0 0 -.51741 364 795.43)" d="m279.97 514.41-12.66 7.32v-14.63l12.66 7.31z"/>
</g>
<rect x="430.79" y="525.1" width="9.4281" height="9.4281" rx="0" ry="0" fill="none" stroke="#ff01db"/>
<path transform="matrix(.87668 0 0 .87521 59.31 61.955)" d="m455.3 518.14h-11.97l5.98-10.37 5.99 10.37z" fill="none" stroke="#00ff83" stroke-width="1.1416"/>
<path transform="matrix(-.68573 0 0 -.68573 781.79 879.99)" d="m461.57 510.66a8.2353 8.2353 0 1 1-16.47 0 8.2353 8.2353 0 1 1 16.47 0z" fill="none" stroke="#f00" stroke-linecap="round" stroke-linejoin="round" stroke-width="1.4583"/>
<path d="m449.04 543.43 8.5 8.5m0-8.5-8.5 8.5" fill="none" stroke="#8243fb"/>
<g fill="#5a5a5a" fill-rule="evenodd" stroke="#454545" stroke-linecap="round" stroke-linejoin="round">
<path transform="translate(.35102 .37335)" d="m318.59 523.28c-0.33 0.03-0.64 0.2-0.84 0.47l-3.5 4.44c-0.33 0.42-0.33 1.01 0 1.43l3.5 4.47c0.22 0.3 0.57 0.47 0.94 0.47l8.12 0.03c0.32 0.01 0.62-0.12 0.84-0.34 0.23-0.22 0.35-0.53 0.35-0.84v-8.79c0-0.64-0.51-1.17-1.16-1.18l-8.12-0.16h-0.13z"/>
<path transform="matrix(-1 0 0 1 618.9 .2845)" d="m318.59 523.28c-0.33 0.03-0.64 0.2-0.84 0.47l-3.5 4.44c-0.33 0.42-0.33 1.01 0 1.43l3.5 4.47c0.22 0.3 0.57 0.47 0.94 0.47l8.12 0.03c0.32 0.01 0.62-0.12 0.84-0.34 0.23-0.22 0.35-0.53 0.35-0.84v-8.79c0-0.64-0.51-1.17-1.16-1.18l-8.12-0.16h-0.13z"/>
<path transform="matrix(0 1 -1 0 838.52 219.99)" d="m318.59 523.28c-0.33 0.03-0.64 0.2-0.84 0.47l-3.5 4.44c-0.33 0.42-0.33 1.01 0 1.43l3.5 4.47c0.22 0.3 0.57 0.47 0.94 0.47l8.12 0.03c0.32 0.01 0.62-0.12 0.84-0.34 0.23-0.22 0.35-0.53 0.35-0.84v-8.79c0-0.64-0.51-1.17-1.16-1.18l-8.12-0.16h-0.13z"/>
<path transform="matrix(0 -1 -1 0 838.61 838.54)" d="m318.59 523.28c-0.33 0.03-0.64 0.2-0.84 0.47l-3.5 4.44c-0.33 0.42-0.33 1.01 0 1.43l3.5 4.47c0.22 0.3 0.57 0.47 0.94 0.47l8.12 0.03c0.32 0.01 0.62-0.12 0.84-0.34 0.23-0.22 0.35-0.53 0.35-0.84v-8.79c0-0.64-0.51-1.17-1.16-1.18l-8.12-0.16h-0.13z"/>
</g>
<path d="m307.47 481.42h1.03v6.8h3.74v0.88h-4.77v-7.68"/>
<path d="m454.02 485.5c0.22 0.08 0.44 0.24 0.65 0.48 0.21 0.25 0.42 0.59 0.64 1.02l1.05 2.1h-1.12l-0.98-1.97c-0.25-0.52-0.5-0.86-0.74-1.02-0.23-0.17-0.56-0.26-0.97-0.26h-1.13v3.25h-1.04v-7.68h2.35c0.87 0 1.53 0.19 1.96 0.55 0.43 0.37 0.65 0.92 0.65 1.66 0 0.49-0.12 0.89-0.34 1.21-0.23 0.32-0.55 0.54-0.98 0.66m-2.6-3.22v2.72h1.31c0.5 0 0.87-0.11 1.13-0.34 0.25-0.24 0.38-0.58 0.38-1.03 0-0.44-0.13-0.78-0.38-1.01-0.26-0.23-0.63-0.34-1.13-0.34h-1.31"/>
<path d="m353.63 524.56v0.44c-0.17-0.08-0.34-0.14-0.49-0.18s-0.29-0.06-0.44-0.06c-0.24 0-0.43 0.04-0.56 0.14-0.14 0.09-0.2 0.23-0.2 0.4 0 0.15 0.04 0.26 0.13 0.34 0.09 0.07 0.26 0.13 0.5 0.18l0.27 0.05c0.34 0.07 0.59 0.18 0.75 0.34s0.24 0.38 0.24 0.65c0 0.32-0.11 0.57-0.33 0.73-0.21 0.17-0.53 0.25-0.95 0.25-0.15 0-0.32-0.02-0.5-0.05-0.18-0.04-0.36-0.09-0.55-0.16v-0.46c0.18 0.1 0.36 0.18 0.54 0.23 0.17 0.05 0.34 0.08 0.51 0.08 0.26 0 0.46-0.05 0.6-0.15 0.14-0.11 0.21-0.25 0.21-0.44 0-0.16-0.05-0.29-0.15-0.38s-0.27-0.16-0.5-0.21l-0.27-0.05c-0.34-0.07-0.58-0.17-0.73-0.32-0.15-0.14-0.23-0.34-0.23-0.59 0-0.3 0.11-0.53 0.31-0.7 0.21-0.17 0.5-0.25 0.86-0.25 0.16 0 0.32 0.01 0.48 0.04s0.33 0.07 0.5 0.13m0.9-0.11h2.1v0.38h-1.65v0.98h1.59v0.38h-1.59v1.21h1.69v0.38h-2.14v-3.33m2.89 0h0.45v2.95h1.62v0.38h-2.07v-3.33m2.54 0h2.1v0.38h-1.65v0.98h1.59v0.38h-1.59v1.21h1.7v0.38h-2.15v-3.33m5.38 0.26v0.47c-0.15-0.14-0.31-0.25-0.48-0.32s-0.36-0.1-0.55-0.1c-0.38 0-0.67 0.12-0.87 0.35-0.21 0.23-0.31 0.57-0.31 1.01s0.1 0.77 0.31 1c0.2 0.24 0.49 0.35 0.87 0.35 0.19 0 0.38-0.03 0.55-0.1s0.33-0.18 0.48-0.32v0.47c-0.16 0.11-0.32 0.19-0.5 0.24-0.17 0.06-0.36 0.08-0.56 0.08-0.5 0-0.9-0.15-1.19-0.46s-0.43-0.73-0.43-1.26c0-0.54 0.14-0.96 0.43-1.27s0.69-0.46 1.19-0.46c0.2 0 0.39 0.03 0.56 0.08 0.18 0.05 0.35 0.13 0.5 0.24m0.24-0.26h2.82v0.38h-1.19v2.95h-0.45v-2.95h-1.18v-0.38" fill="#e6e6e6"/>
<path d="m396.51 524.56v0.44c-0.17-0.08-0.33-0.14-0.48-0.18-0.16-0.04-0.3-0.06-0.44-0.06-0.25 0-0.44 0.04-0.57 0.14-0.13 0.09-0.2 0.23-0.2 0.4 0 0.15 0.04 0.26 0.13 0.34 0.09 0.07 0.26 0.13 0.5 0.18l0.28 0.05c0.33 0.07 0.58 0.18 0.74 0.34s0.24 0.38 0.24 0.65c0 0.32-0.11 0.57-0.33 0.73-0.21 0.17-0.53 0.25-0.95 0.25-0.15 0-0.32-0.02-0.5-0.05-0.18-0.04-0.36-0.09-0.55-0.16v-0.46c0.18 0.1 0.36 0.18 0.54 0.23 0.17 0.05 0.34 0.08 0.51 0.08 0.26 0 0.46-0.05 0.6-0.15 0.14-0.11 0.21-0.25 0.21-0.44 0-0.16-0.05-0.29-0.15-0.38s-0.27-0.16-0.5-0.21l-0.27-0.05c-0.34-0.07-0.58-0.17-0.73-0.32-0.15-0.14-0.22-0.34-0.22-0.59 0-0.3 0.1-0.53 0.31-0.7 0.2-0.17 0.49-0.25 0.85-0.25 0.16 0 0.32 0.01 0.48 0.04s0.33 0.07 0.5 0.13m0.44-0.11h2.82v0.38h-1.19v2.95h-0.45v-2.95h-1.18v-0.38m4.01 0.44-0.61 1.66h1.22l-0.61-1.66m-0.26-0.44h0.51l1.27 3.33h-0.46l-0.31-0.86h-1.5l-0.3 0.86h-0.48l1.27-3.33m3.85 1.77c0.09 0.03 0.19 0.1 0.28 0.21 0.09 0.1 0.18 0.25 0.27 0.44l0.46 0.91h-0.48l-0.43-0.86c-0.11-0.22-0.22-0.37-0.32-0.44s-0.24-0.11-0.42-0.11h-0.49v1.41h-0.45v-3.33h1.01c0.38 0 0.67 0.08 0.86 0.24 0.18 0.16 0.28 0.4 0.28 0.72 0 0.21-0.05 0.38-0.15 0.52s-0.24 0.23-0.42 0.29m-1.13-1.4v1.18h0.56c0.22 0 0.38-0.05 0.49-0.15 0.12-0.1 0.17-0.25 0.17-0.44 0-0.2-0.05-0.34-0.17-0.44-0.11-0.1-0.27-0.15-0.49-0.15h-0.56m1.93-0.37h2.82v0.38h-1.19v2.95h-0.45v-2.95h-1.18v-0.38" fill="#e6e6e6"/>
<text transform="scale(-1.6252 -.6153)" x="-223.68372" y="-815.48474" fill="#b3b3b3" font-family="Arial" font-size="3.0753px" style="line-height:125%" xml:space="preserve">
      <tspan x="-223.68372" y="-815.48474">1</tspan>
    </text>
<text transform="scale(-1.6252 -.6153)" x="-220.45108" y="-815.48474" fill="#b3b3b3" font-family="Arial" font-size="3.0753px" style="line-height:125%" xml:space="preserve">
      <tspan x="-220.45108" y="-815.48474">2</tspan>
    </text>
<text transform="scale(-1.6252 -.6153)" x="-216.92226" y="-815.5238" fill="#b3b3b3" font-family="Arial" font-size="3.0753px" style="line-height:125%" xml:space="preserve">
      <tspan x="-216.92226" y="-815.5238">3</tspan>
    </text>
<text transform="scale(-1.6252 -.6153)" x="-212.86066" y="-815.49377" fill="#b3b3b3" font-family="Arial" font-size="3.0753px" style="line-height:125%" xml:space="preserve">
      <tspan x="-212.86066" y="-815.49377">4</tspan>
    </text>
<rect x="343.44" y="498.32" width="2.0832" height="2.7005" rx="0" ry="1.5686" fill="#1a1a1a"/>
<rect x="350" y="498.32" width="2.0832" height="2.7005" rx="0" ry="1.5686" fill="#1a1a1a"/>
<rect x="355.86" y="498.32" width="2.0832" height="2.7005" rx="0" ry="1.5686" fill="#1a1a1a"/>
<rect x="360.96" y="498.32" width="2.0832" height="2.7005" rx="0" ry="1.5686" fill="#f00"/>
</g>
<metadata>
<rdf:RDF>
<cc:Work>
<dc:format>image/svg+xml</dc:format>
<dc:type rdf:resource="http://purl.org/dc/dcmitype/StillImage"/>
<cc:license rdf:resource="http://creativecommons.org/licenses/publicdomain/"/>
<dc:publisher>
<cc:Agent rdf:about="http://openclipart.org/">
<dc:title>Openclipart</dc:title>
</cc:Agent>
</dc:publisher>
<dc:title>Playstation3 Gamepad</dc:title>
<dc:date>2009-04-20T05:25:47</dc:date>
<dc:description>Playstation 3 Dualshock Gamepad</dc:description>
<dc:source>https://openclipart.org/detail/25145/playstation3-gamepad-by-grumbel</dc:source>
<dc:creator>
<cc:Agent>
<dc:title>grumbel</dc:title>
</cc:Agent>
</dc:creator>
<dc:subject>
<rdf:Bag>
<rdf:li>game</rdf:li>
<rdf:li>gamepad</rdf:li>
<rdf:li>playstation</rdf:li>
<rdf:li>ps3</rdf:li>
</rdf:Bag>
</dc:subject>
</cc:Work>
<cc:License rdf:about="http://creativecommons.org/licenses/publicdomain/">
<cc:permits rdf:resource="http://creativecommons.org/ns#Reproduction"/>
<cc:permits rdf:resource="http://creativecommons.org/ns#Distribution"/>
<cc:permits rdf:resource="http://creativecommons.org/ns#DerivativeWorks"/>
</cc:License>
</rdf:RDF>
</metadata>
</svg>
